<svg xmlns="http://www.w3.org/2000/svg" xmlns:xlink="http://www.w3.org/1999/xlink" width="350" zoomAndPan="magnify" viewBox="0 0 262.5 74.999997" height="100" preserveAspectRatio="xMidYMid meet" version="1.0"><defs><g/><clipPath id="5f248f3126"><path d="M 143.082031 4.933594 L 156.800781 4.933594 L 156.800781 18.652344 L 143.082031 18.652344 Z M 143.082031 4.933594 " clip-rule="nonzero"/></clipPath><clipPath id="db27b5491e"><path d="M 149.941406 4.933594 C 146.152344 4.933594 143.082031 8.003906 143.082031 11.792969 C 143.082031 15.582031 146.152344 18.652344 149.941406 18.652344 C 153.730469 18.652344 156.800781 15.582031 156.800781 11.792969 C 156.800781 8.003906 153.730469 4.933594 149.941406 4.933594 Z M 149.941406 4.933594 " clip-rule="nonzero"/></clipPath><clipPath id="ccf73656e5"><path d="M 143.082031 39.210938 L 156.800781 39.210938 L 156.800781 52.925781 L 143.082031 52.925781 Z M 143.082031 39.210938 " clip-rule="nonzero"/></clipPath><clipPath id="9bd6a821c1"><path d="M 149.941406 39.210938 C 146.152344 39.210938 143.082031 42.28125 143.082031 46.066406 C 143.082031 49.855469 146.152344 52.925781 149.941406 52.925781 C 153.730469 52.925781 156.800781 49.855469 156.800781 46.066406 C 156.800781 42.28125 153.730469 39.210938 149.941406 39.210938 Z M 149.941406 39.210938 " clip-rule="nonzero"/></clipPath><clipPath id="af0a5dee78"><path d="M 143.082031 22.070312 L 156.800781 22.070312 L 156.800781 35.789062 L 143.082031 35.789062 Z M 143.082031 22.070312 " clip-rule="nonzero"/></clipPath><clipPath id="a872f725e7"><path d="M 149.941406 22.070312 C 146.152344 22.070312 143.082031 25.144531 143.082031 28.929688 C 143.082031 32.71875 146.152344 35.789062 149.941406 35.789062 C 153.730469 35.789062 156.800781 32.71875 156.800781 28.929688 C 156.800781 25.144531 153.730469 22.070312 149.941406 22.070312 Z M 149.941406 22.070312 " clip-rule="nonzero"/></clipPath></defs><path fill="#e11432" d="M 101.941406 55.816406 L 135.332031 55.816406 L 135.332031 61.054688 L 101.941406 61.054688 Z M 101.941406 55.816406 " fill-opacity="1" fill-rule="nonzero"/><g fill="#e11432" fill-opacity="1"><g transform="translate(101.939982, 52.820442)"><g><path d="M 32.515625 -19.796875 L 38.125 -19.796875 L 38.125 -10.15625 L 32.515625 -10.15625 L 32.515625 0 L 22.234375 0 L 22.234375 -10.15625 L -1.453125 -10.15625 L -1.453125 -13.421875 L 21.65625 -48.15625 L 32.515625 -48.15625 Z M 22.234375 -33.5 L 22.125 -33.5 L 13.546875 -19.796875 L 22.234375 -19.796875 Z M 22.234375 -33.5 "/></g></g></g><path fill="#ffffff" d="M 135.332031 55.816406 L 145.789062 55.816406 L 145.789062 61.054688 L 135.332031 61.054688 Z M 135.332031 55.816406 " fill-opacity="1" fill-rule="nonzero"/><g fill="#ffffff" fill-opacity="1"><g transform="translate(135.333405, 52.820442)"><g/></g></g><g fill="#e11432" fill-opacity="1"><g transform="translate(145.79005, 52.820442)"><g/></g></g><g clip-path="url(#5f248f3126)"><g clip-path="url(#db27b5491e)"><path fill="#12a352" d="M 143.082031 4.933594 L 156.800781 4.933594 L 156.800781 18.652344 L 143.082031 18.652344 Z M 143.082031 4.933594 " fill-opacity="1" fill-rule="nonzero"/></g></g><g clip-path="url(#ccf73656e5)"><g clip-path="url(#9bd6a821c1)"><path fill="#2c88c7" d="M 143.082031 39.210938 L 156.800781 39.210938 L 156.800781 52.925781 L 143.082031 52.925781 Z M 143.082031 39.210938 " fill-opacity="1" fill-rule="nonzero"/></g></g><g clip-path="url(#af0a5dee78)"><g clip-path="url(#a872f725e7)"><path fill="#faca50" d="M 143.082031 22.070312 L 156.800781 22.070312 L 156.800781 35.789062 L 143.082031 35.789062 Z M 143.082031 22.070312 " fill-opacity="1" fill-rule="nonzero"/></g></g></svg>