<svg xmlns="http://www.w3.org/2000/svg" xmlns:xlink="http://www.w3.org/1999/xlink" width="350" zoomAndPan="magnify" viewBox="0 0 262.5 74.999997" height="100" preserveAspectRatio="xMidYMid meet" version="1.0"><defs><g/><clipPath id="9335793ba2"><path d="M 142.871094 5.859375 L 156.351562 5.859375 L 156.351562 19.339844 L 142.871094 19.339844 Z M 142.871094 5.859375 " clip-rule="nonzero"/></clipPath><clipPath id="c3c90ef905"><path d="M 149.609375 5.859375 C 145.890625 5.859375 142.871094 8.878906 142.871094 12.601562 C 142.871094 16.320312 145.890625 19.339844 149.609375 19.339844 C 153.332031 19.339844 156.351562 16.320312 156.351562 12.601562 C 156.351562 8.878906 153.332031 5.859375 149.609375 5.859375 Z M 149.609375 5.859375 " clip-rule="nonzero"/></clipPath><clipPath id="0ba7b15f60"><path d="M 142.871094 39.539062 L 156.351562 39.539062 L 156.351562 53.015625 L 142.871094 53.015625 Z M 142.871094 39.539062 " clip-rule="nonzero"/></clipPath><clipPath id="f9becc199a"><path d="M 149.609375 39.539062 C 145.890625 39.539062 142.871094 42.554688 142.871094 46.277344 C 142.871094 50 145.890625 53.015625 149.609375 53.015625 C 153.332031 53.015625 156.351562 50 156.351562 46.277344 C 156.351562 42.554688 153.332031 39.539062 149.609375 39.539062 Z M 149.609375 39.539062 " clip-rule="nonzero"/></clipPath><clipPath id="0f235c7244"><path d="M 142.871094 22.699219 L 156.351562 22.699219 L 156.351562 36.175781 L 142.871094 36.175781 Z M 142.871094 22.699219 " clip-rule="nonzero"/></clipPath><clipPath id="821841150f"><path d="M 149.609375 22.699219 C 145.890625 22.699219 142.871094 25.714844 142.871094 29.4375 C 142.871094 33.160156 145.890625 36.175781 149.609375 36.175781 C 153.332031 36.175781 156.351562 33.160156 156.351562 29.4375 C 156.351562 25.714844 153.332031 22.699219 149.609375 22.699219 Z M 149.609375 22.699219 " clip-rule="nonzero"/></clipPath></defs><path fill="#e11432" d="M 102.59375 56.136719 L 135.402344 56.136719 L 135.402344 61.375 L 102.59375 61.375 Z M 102.59375 56.136719 " fill-opacity="1" fill-rule="nonzero"/><g fill="#e11432" fill-opacity="1"><g transform="translate(102.591812, 53.141949)"><g><path d="M 31.953125 -19.4375 L 37.453125 -19.4375 L 37.453125 -9.984375 L 31.953125 -9.984375 L 31.953125 0 L 21.859375 0 L 21.859375 -9.984375 L -1.4375 -9.984375 L -1.4375 -13.1875 L 21.28125 -47.328125 L 31.953125 -47.328125 Z M 21.859375 -32.921875 L 21.734375 -32.921875 L 13.3125 -19.4375 L 21.859375 -19.4375 Z M 21.859375 -32.921875 "/></g></g></g><path fill="#020202" d="M 135.402344 56.136719 L 145.667969 56.136719 L 145.667969 61.375 L 135.402344 61.375 Z M 135.402344 56.136719 " fill-opacity="1" fill-rule="nonzero"/><g fill="#020202" fill-opacity="1"><g transform="translate(135.400411, 53.141949)"><g/></g></g><g fill="#e11432" fill-opacity="1"><g transform="translate(145.669912, 53.141949)"><g/></g></g><g clip-path="url(#9335793ba2)"><g clip-path="url(#c3c90ef905)"><path fill="#12a352" d="M 142.871094 5.859375 L 156.351562 5.859375 L 156.351562 19.339844 L 142.871094 19.339844 Z M 142.871094 5.859375 " fill-opacity="1" fill-rule="nonzero"/></g></g><g clip-path="url(#0ba7b15f60)"><g clip-path="url(#f9becc199a)"><path fill="#2c88c7" d="M 142.871094 39.539062 L 156.351562 39.539062 L 156.351562 53.015625 L 142.871094 53.015625 Z M 142.871094 39.539062 " fill-opacity="1" fill-rule="nonzero"/></g></g><g clip-path="url(#0f235c7244)"><g clip-path="url(#821841150f)"><path fill="#faca50" d="M 142.871094 22.699219 L 156.351562 22.699219 L 156.351562 36.175781 L 142.871094 36.175781 Z M 142.871094 22.699219 " fill-opacity="1" fill-rule="nonzero"/></g></g></svg>