<svg xmlns="http://www.w3.org/2000/svg" xmlns:xlink="http://www.w3.org/1999/xlink" width="350" zoomAndPan="magnify" viewBox="0 0 262.5 74.999997" height="100" preserveAspectRatio="xMidYMid meet" version="1.0"><defs><g/><clipPath id="cf7ca5569c"><path d="M 59.445312 2.507812 L 75.734375 2.507812 L 75.734375 19.371094 L 59.445312 19.371094 Z M 59.445312 2.507812 " clip-rule="nonzero"/></clipPath><clipPath id="3b1f752fad"><path d="M 67.589844 2.507812 C 63.089844 2.507812 59.445312 6.273438 59.445312 10.921875 C 59.445312 15.566406 63.089844 19.335938 67.589844 19.335938 C 72.089844 19.335938 75.734375 15.566406 75.734375 10.921875 C 75.734375 6.273438 72.089844 2.507812 67.589844 2.507812 Z M 67.589844 2.507812 " clip-rule="nonzero"/></clipPath><clipPath id="9074118dce"><path d="M 59.445312 44.554688 L 75.734375 44.554688 L 75.734375 61.417969 L 59.445312 61.417969 Z M 59.445312 44.554688 " clip-rule="nonzero"/></clipPath><clipPath id="84704f8b65"><path d="M 67.589844 44.554688 C 63.089844 44.554688 59.445312 48.320312 59.445312 52.96875 C 59.445312 57.617188 63.089844 61.382812 67.589844 61.382812 C 72.089844 61.382812 75.734375 57.617188 75.734375 52.96875 C 75.734375 48.320312 72.089844 44.554688 67.589844 44.554688 Z M 67.589844 44.554688 " clip-rule="nonzero"/></clipPath><clipPath id="e705120d4c"><path d="M 59.445312 23.53125 L 75.734375 23.53125 L 75.734375 40.394531 L 59.445312 40.394531 Z M 59.445312 23.53125 " clip-rule="nonzero"/></clipPath><clipPath id="a71a860022"><path d="M 67.589844 23.53125 C 63.089844 23.53125 59.445312 27.296875 59.445312 31.945312 C 59.445312 36.59375 63.089844 40.359375 67.589844 40.359375 C 72.089844 40.359375 75.734375 36.59375 75.734375 31.945312 C 75.734375 27.296875 72.089844 23.53125 67.589844 23.53125 Z M 67.589844 23.53125 " clip-rule="nonzero"/></clipPath></defs><path fill="#e11432" d="M 9.730469 64.636719 L 50.699219 64.636719 L 50.699219 71.039062 L 9.730469 71.039062 Z M 9.730469 64.636719 " fill-opacity="1" fill-rule="nonzero"/><g fill="#e11432" fill-opacity="1"><g transform="translate(9.731463, 60.632638)"><g><path d="M 39.890625 -24.28125 L 46.765625 -24.28125 L 46.765625 -12.453125 L 39.890625 -12.453125 L 39.890625 0 L 27.28125 0 L 27.28125 -12.453125 L -1.796875 -12.453125 L -1.796875 -16.46875 L 26.5625 -59.078125 L 39.890625 -59.078125 Z M 27.28125 -41.109375 L 27.140625 -41.109375 L 16.609375 -24.28125 L 27.28125 -24.28125 Z M 27.28125 -41.109375 "/></g></g></g><path fill="#000000" d="M 50.699219 64.636719 L 63.519531 64.636719 L 63.519531 71.039062 L 50.699219 71.039062 Z M 50.699219 64.636719 " fill-opacity="1" fill-rule="nonzero"/><g fill="#000000" fill-opacity="1"><g transform="translate(50.699292, 60.632638)"><g/></g></g><g fill="#e11432" fill-opacity="1"><g transform="translate(63.521284, 60.632638)"><g/></g></g><g fill="#000000" fill-opacity="1"><g transform="translate(76.343277, 60.632638)"><g><path d="M 4.296875 0 L 4.296875 -36.734375 L 16.96875 -36.734375 L 16.96875 -32.875 L 17.109375 -32.875 C 20.410156 -36.164062 23.921875 -37.8125 27.640625 -37.8125 C 30.316406 -37.8125 32.820312 -37.257812 35.15625 -36.15625 C 37.5 -35.0625 39.265625 -33.367188 40.453125 -31.078125 C 44.179688 -35.566406 48.238281 -37.8125 52.625 -37.8125 C 56.539062 -37.8125 59.90625 -36.710938 62.71875 -34.515625 C 65.539062 -32.316406 66.953125 -28.878906 66.953125 -24.203125 L 66.953125 0 L 54.28125 0 L 54.28125 -20.765625 C 54.28125 -22.722656 53.742188 -24.359375 52.671875 -25.671875 C 51.597656 -26.984375 49.984375 -27.640625 47.828125 -27.640625 C 45.972656 -27.640625 44.554688 -27.078125 43.578125 -25.953125 C 42.597656 -24.835938 42.0625 -23.488281 41.96875 -21.90625 L 41.96875 0 L 29.28125 0 L 29.28125 -20.765625 C 29.28125 -22.722656 28.742188 -24.359375 27.671875 -25.671875 C 26.597656 -26.984375 24.988281 -27.640625 22.84375 -27.640625 C 20.882812 -27.640625 19.414062 -27.03125 18.4375 -25.8125 C 17.457031 -24.59375 16.96875 -23.148438 16.96875 -21.484375 L 16.96875 0 Z M 4.296875 0 "/></g></g></g><g fill="#000000" fill-opacity="1"><g transform="translate(140.140353, 60.632638)"><g><path d="M 7.765625 -4.359375 C 3.679688 -7.992188 1.640625 -12.648438 1.640625 -18.328125 C 1.640625 -24.015625 3.765625 -28.679688 8.015625 -32.328125 C 12.265625 -35.984375 17.519531 -37.8125 23.78125 -37.8125 C 29.9375 -37.8125 35.125 -35.972656 39.34375 -32.296875 C 43.570312 -28.617188 45.6875 -23.960938 45.6875 -18.328125 C 45.6875 -12.691406 43.617188 -8.046875 39.484375 -4.390625 C 35.359375 -0.742188 30.125 1.078125 23.78125 1.078125 C 17.1875 1.078125 11.847656 -0.734375 7.765625 -4.359375 Z M 17.578125 -24.5625 C 15.929688 -22.9375 15.109375 -20.859375 15.109375 -18.328125 C 15.109375 -15.796875 15.894531 -13.726562 17.46875 -12.125 C 19.039062 -10.53125 21.117188 -9.734375 23.703125 -9.734375 C 26.179688 -9.734375 28.21875 -10.546875 29.8125 -12.171875 C 31.414062 -13.796875 32.21875 -15.847656 32.21875 -18.328125 C 32.21875 -20.859375 31.394531 -22.9375 29.75 -24.5625 C 28.101562 -26.1875 26.085938 -27 23.703125 -27 C 21.265625 -27 19.222656 -26.1875 17.578125 -24.5625 Z M 17.578125 -24.5625 "/></g></g></g><g fill="#000000" fill-opacity="1"><g transform="translate(180.738066, 60.632638)"><g><path d="M 4.296875 0 L 4.296875 -36.734375 L 16.96875 -36.734375 L 16.96875 -31.4375 L 17.109375 -31.4375 C 17.210938 -31.625 17.367188 -31.859375 17.578125 -32.140625 C 17.796875 -32.429688 18.257812 -32.9375 18.96875 -33.65625 C 19.6875 -34.375 20.453125 -35.019531 21.265625 -35.59375 C 22.078125 -36.164062 23.128906 -36.675781 24.421875 -37.125 C 25.710938 -37.582031 27.023438 -37.8125 28.359375 -37.8125 C 29.742188 -37.8125 31.101562 -37.617188 32.4375 -37.234375 C 33.769531 -36.847656 34.75 -36.46875 35.375 -36.09375 L 36.375 -35.515625 L 31.078125 -24.78125 C 29.503906 -26.113281 27.304688 -26.78125 24.484375 -26.78125 C 22.960938 -26.78125 21.648438 -26.445312 20.546875 -25.78125 C 19.453125 -25.113281 18.675781 -24.300781 18.21875 -23.34375 C 17.769531 -22.382812 17.445312 -21.570312 17.25 -20.90625 C 17.0625 -20.238281 16.96875 -19.710938 16.96875 -19.328125 L 16.96875 0 Z M 4.296875 0 "/></g></g></g><g fill="#000000" fill-opacity="1"><g transform="translate(209.664485, 60.632638)"><g><path d="M 41.46875 -16.609375 L 14.828125 -16.609375 C 14.828125 -14.035156 15.660156 -12.125 17.328125 -10.875 C 18.992188 -9.632812 20.804688 -9.015625 22.765625 -9.015625 C 24.816406 -9.015625 26.441406 -9.289062 27.640625 -9.84375 C 28.835938 -10.394531 30.195312 -11.484375 31.71875 -13.109375 L 40.890625 -8.515625 C 37.066406 -2.117188 30.71875 1.078125 21.84375 1.078125 C 16.300781 1.078125 11.546875 -0.816406 7.578125 -4.609375 C 3.617188 -8.410156 1.640625 -12.984375 1.640625 -18.328125 C 1.640625 -23.679688 3.617188 -28.265625 7.578125 -32.078125 C 11.546875 -35.898438 16.300781 -37.8125 21.84375 -37.8125 C 27.664062 -37.8125 32.398438 -36.128906 36.046875 -32.765625 C 39.703125 -29.398438 41.53125 -24.585938 41.53125 -18.328125 C 41.53125 -17.472656 41.507812 -16.898438 41.46875 -16.609375 Z M 15.1875 -23.625 L 29.140625 -23.625 C 28.859375 -25.539062 28.109375 -27.007812 26.890625 -28.03125 C 25.671875 -29.0625 24.109375 -29.578125 22.203125 -29.578125 C 20.097656 -29.578125 18.425781 -29.023438 17.1875 -27.921875 C 15.945312 -26.828125 15.28125 -25.394531 15.1875 -23.625 Z M 15.1875 -23.625 "/></g></g></g><g clip-path="url(#cf7ca5569c)"><g clip-path="url(#3b1f752fad)"><path fill="#12a352" d="M 59.445312 2.507812 L 75.734375 2.507812 L 75.734375 19.308594 L 59.445312 19.308594 Z M 59.445312 2.507812 " fill-opacity="1" fill-rule="nonzero"/></g></g><g clip-path="url(#9074118dce)"><g clip-path="url(#84704f8b65)"><path fill="#2c88c7" d="M 59.445312 44.554688 L 75.734375 44.554688 L 75.734375 61.355469 L 59.445312 61.355469 Z M 59.445312 44.554688 " fill-opacity="1" fill-rule="nonzero"/></g></g><g clip-path="url(#e705120d4c)"><g clip-path="url(#a71a860022)"><path fill="#faca50" d="M 59.445312 23.53125 L 75.734375 23.53125 L 75.734375 40.332031 L 59.445312 40.332031 Z M 59.445312 23.53125 " fill-opacity="1" fill-rule="nonzero"/></g></g></svg>