<svg xmlns="http://www.w3.org/2000/svg" xmlns:xlink="http://www.w3.org/1999/xlink" width="350" zoomAndPan="magnify" viewBox="0 0 262.5 74.999997" height="100" preserveAspectRatio="xMidYMid meet" version="1.0"><defs><g/><clipPath id="683118821e"><path d="M 142.824219 5.988281 L 156.25 5.988281 L 156.25 19.414062 L 142.824219 19.414062 Z M 142.824219 5.988281 " clip-rule="nonzero"/></clipPath><clipPath id="6739709138"><path d="M 149.535156 5.988281 C 145.828125 5.988281 142.824219 8.992188 142.824219 12.699219 C 142.824219 16.40625 145.828125 19.414062 149.535156 19.414062 C 153.242188 19.414062 156.25 16.40625 156.25 12.699219 C 156.25 8.992188 153.242188 5.988281 149.535156 5.988281 Z M 149.535156 5.988281 " clip-rule="nonzero"/></clipPath><clipPath id="41723ebe03"><path d="M 142.824219 39.527344 L 156.25 39.527344 L 156.25 52.953125 L 142.824219 52.953125 Z M 142.824219 39.527344 " clip-rule="nonzero"/></clipPath><clipPath id="3bc0c3a9f5"><path d="M 149.535156 39.527344 C 145.828125 39.527344 142.824219 42.535156 142.824219 46.242188 C 142.824219 49.949219 145.828125 52.953125 149.535156 52.953125 C 153.242188 52.953125 156.25 49.949219 156.25 46.242188 C 156.25 42.535156 153.242188 39.527344 149.535156 39.527344 Z M 149.535156 39.527344 " clip-rule="nonzero"/></clipPath><clipPath id="542ee9b0ab"><path d="M 142.824219 22.757812 L 156.25 22.757812 L 156.25 36.183594 L 142.824219 36.183594 Z M 142.824219 22.757812 " clip-rule="nonzero"/></clipPath><clipPath id="df13f425b1"><path d="M 149.535156 22.757812 C 145.828125 22.757812 142.824219 25.761719 142.824219 29.46875 C 142.824219 33.175781 145.828125 36.183594 149.535156 36.183594 C 153.242188 36.183594 156.25 33.175781 156.25 29.46875 C 156.25 25.761719 153.242188 22.757812 149.535156 22.757812 Z M 149.535156 22.757812 " clip-rule="nonzero"/></clipPath></defs><path fill="#e11432" d="M 101.003906 56.296875 L 133.671875 56.296875 L 133.671875 61.535156 L 101.003906 61.535156 Z M 101.003906 56.296875 " fill-opacity="1" fill-rule="nonzero"/><g fill="#e11432" fill-opacity="1"><g transform="translate(101.004221, 53.302291)"><g><path d="M 31.8125 -19.359375 L 37.296875 -19.359375 L 37.296875 -9.9375 L 31.8125 -9.9375 L 31.8125 0 L 21.765625 0 L 21.765625 -9.9375 L -1.421875 -9.9375 L -1.421875 -13.140625 L 21.1875 -47.125 L 31.8125 -47.125 Z M 21.765625 -32.796875 L 21.65625 -32.796875 L 13.25 -19.359375 L 21.765625 -19.359375 Z M 21.765625 -32.796875 "/></g></g></g><path fill="#020202" d="M 133.671875 56.296875 L 143.894531 56.296875 L 143.894531 61.535156 L 133.671875 61.535156 Z M 133.671875 56.296875 " fill-opacity="1" fill-rule="nonzero"/><g fill="#020202" fill-opacity="1"><g transform="translate(133.672463, 53.302291)"><g/></g></g><g fill="#e11432" fill-opacity="1"><g transform="translate(143.895179, 53.302291)"><g/></g></g><g clip-path="url(#683118821e)"><g clip-path="url(#6739709138)"><path fill="#e11432" d="M 142.824219 5.988281 L 156.25 5.988281 L 156.25 19.414062 L 142.824219 19.414062 Z M 142.824219 5.988281 " fill-opacity="1" fill-rule="nonzero"/></g></g><g clip-path="url(#41723ebe03)"><g clip-path="url(#3bc0c3a9f5)"><path fill="#e11432" d="M 142.824219 39.527344 L 156.25 39.527344 L 156.25 52.953125 L 142.824219 52.953125 Z M 142.824219 39.527344 " fill-opacity="1" fill-rule="nonzero"/></g></g><g clip-path="url(#542ee9b0ab)"><g clip-path="url(#df13f425b1)"><path fill="#e11432" d="M 142.824219 22.757812 L 156.25 22.757812 L 156.25 36.183594 L 142.824219 36.183594 Z M 142.824219 22.757812 " fill-opacity="1" fill-rule="nonzero"/></g></g></svg>