<svg xmlns="http://www.w3.org/2000/svg" xmlns:xlink="http://www.w3.org/1999/xlink" width="350" zoomAndPan="magnify" viewBox="0 0 262.5 74.999997" height="100" preserveAspectRatio="xMidYMid meet" version="1.0"><defs><g/><clipPath id="05803dd26f"><path d="M 143.09375 5.269531 L 156.824219 5.269531 L 156.824219 19 L 143.09375 19 Z M 143.09375 5.269531 " clip-rule="nonzero"/></clipPath><clipPath id="b00cbc8d6d"><path d="M 149.957031 5.269531 C 146.167969 5.269531 143.09375 8.34375 143.09375 12.136719 C 143.09375 15.925781 146.167969 19 149.957031 19 C 153.75 19 156.824219 15.925781 156.824219 12.136719 C 156.824219 8.34375 153.75 5.269531 149.957031 5.269531 Z M 149.957031 5.269531 " clip-rule="nonzero"/></clipPath><clipPath id="175d301f17"><path d="M 143.09375 39.574219 L 156.824219 39.574219 L 156.824219 53.304688 L 143.09375 53.304688 Z M 143.09375 39.574219 " clip-rule="nonzero"/></clipPath><clipPath id="78e0a649a7"><path d="M 149.957031 39.574219 C 146.167969 39.574219 143.09375 42.648438 143.09375 46.441406 C 143.09375 50.230469 146.167969 53.304688 149.957031 53.304688 C 153.75 53.304688 156.824219 50.230469 156.824219 46.441406 C 156.824219 42.648438 153.75 39.574219 149.957031 39.574219 Z M 149.957031 39.574219 " clip-rule="nonzero"/></clipPath><clipPath id="507c5dabe3"><path d="M 143.09375 22.421875 L 156.824219 22.421875 L 156.824219 36.152344 L 143.09375 36.152344 Z M 143.09375 22.421875 " clip-rule="nonzero"/></clipPath><clipPath id="ecb63878bc"><path d="M 149.957031 22.421875 C 146.167969 22.421875 143.09375 25.496094 143.09375 29.289062 C 143.09375 33.078125 146.167969 36.152344 149.957031 36.152344 C 153.75 36.152344 156.824219 33.078125 156.824219 29.289062 C 156.824219 25.496094 153.75 22.421875 149.957031 22.421875 Z M 149.957031 22.421875 " clip-rule="nonzero"/></clipPath></defs><path fill="#2c88c7" d="M 100.875 56.144531 L 134.292969 56.144531 L 134.292969 61.382812 L 100.875 61.382812 Z M 100.875 56.144531 " fill-opacity="1" fill-rule="nonzero"/><g fill="#2c88c7" fill-opacity="1"><g transform="translate(100.874829, 53.150042)"><g><path d="M 32.546875 -19.8125 L 38.15625 -19.8125 L 38.15625 -10.171875 L 32.546875 -10.171875 L 32.546875 0 L 22.265625 0 L 22.265625 -10.171875 L -1.453125 -10.171875 L -1.453125 -13.4375 L 21.671875 -48.203125 L 32.546875 -48.203125 Z M 22.265625 -33.53125 L 22.140625 -33.53125 L 13.546875 -19.8125 L 22.265625 -19.8125 Z M 22.265625 -33.53125 "/></g></g></g><path fill="#020202" d="M 134.292969 56.144531 L 144.75 56.144531 L 144.75 61.382812 L 134.292969 61.382812 Z M 134.292969 56.144531 " fill-opacity="1" fill-rule="nonzero"/><g fill="#020202" fill-opacity="1"><g transform="translate(134.291646, 53.150042)"><g/></g></g><g fill="#e11432" fill-opacity="1"><g transform="translate(144.74829, 53.150042)"><g/></g></g><g clip-path="url(#05803dd26f)"><g clip-path="url(#b00cbc8d6d)"><path fill="#2c88c7" d="M 143.09375 5.269531 L 156.824219 5.269531 L 156.824219 19 L 143.09375 19 Z M 143.09375 5.269531 " fill-opacity="1" fill-rule="nonzero"/></g></g><g clip-path="url(#175d301f17)"><g clip-path="url(#78e0a649a7)"><path fill="#2c88c7" d="M 143.09375 39.574219 L 156.824219 39.574219 L 156.824219 53.304688 L 143.09375 53.304688 Z M 143.09375 39.574219 " fill-opacity="1" fill-rule="nonzero"/></g></g><g clip-path="url(#507c5dabe3)"><g clip-path="url(#ecb63878bc)"><path fill="#2c88c7" d="M 143.09375 22.421875 L 156.824219 22.421875 L 156.824219 36.152344 L 143.09375 36.152344 Z M 143.09375 22.421875 " fill-opacity="1" fill-rule="nonzero"/></g></g></svg>