<svg xmlns="http://www.w3.org/2000/svg" xmlns:xlink="http://www.w3.org/1999/xlink" width="350" zoomAndPan="magnify" viewBox="0 0 262.5 74.999997" height="100" preserveAspectRatio="xMidYMid meet" version="1.0"><defs><g/><clipPath id="bc4facd148"><path d="M 118.011719 10.855469 L 130.355469 10.855469 L 130.355469 23.203125 L 118.011719 23.203125 Z M 118.011719 10.855469 " clip-rule="nonzero"/></clipPath><clipPath id="af90b0930d"><path d="M 124.183594 10.855469 C 120.777344 10.855469 118.011719 13.621094 118.011719 17.027344 C 118.011719 20.4375 120.777344 23.203125 124.183594 23.203125 C 127.59375 23.203125 130.355469 20.4375 130.355469 17.027344 C 130.355469 13.621094 127.59375 10.855469 124.183594 10.855469 Z M 124.183594 10.855469 " clip-rule="nonzero"/></clipPath><clipPath id="d4ac92765b"><path d="M 118.011719 41.703125 L 130.355469 41.703125 L 130.355469 54.046875 L 118.011719 54.046875 Z M 118.011719 41.703125 " clip-rule="nonzero"/></clipPath><clipPath id="2c2bee1392"><path d="M 124.183594 41.703125 C 120.777344 41.703125 118.011719 44.464844 118.011719 47.875 C 118.011719 51.285156 120.777344 54.046875 124.183594 54.046875 C 127.59375 54.046875 130.355469 51.285156 130.355469 47.875 C 130.355469 44.464844 127.59375 41.703125 124.183594 41.703125 Z M 124.183594 41.703125 " clip-rule="nonzero"/></clipPath><clipPath id="603df4b21b"><path d="M 118.011719 26.277344 L 130.355469 26.277344 L 130.355469 38.625 L 118.011719 38.625 Z M 118.011719 26.277344 " clip-rule="nonzero"/></clipPath><clipPath id="f11e565f82"><path d="M 124.183594 26.277344 C 120.777344 26.277344 118.011719 29.042969 118.011719 32.453125 C 118.011719 35.859375 120.777344 38.625 124.183594 38.625 C 127.59375 38.625 130.355469 35.859375 130.355469 32.453125 C 130.355469 29.042969 127.59375 26.277344 124.183594 26.277344 Z M 124.183594 26.277344 " clip-rule="nonzero"/></clipPath></defs><g fill="#000000" fill-opacity="1"><g transform="translate(0, 53.206484)"><g><path d="M 30.890625 -23.578125 C 33.410156 -20.816406 34.671875 -17.4375 34.671875 -13.4375 C 34.671875 -9.445312 33.410156 -6.078125 30.890625 -3.328125 C 28.367188 -0.585938 25.164062 0.78125 21.28125 0.78125 C 17.707031 0.78125 14.765625 -0.492188 12.453125 -3.046875 L 12.34375 -3.046875 L 12.34375 0 L 3.15625 0 L 3.15625 -45.171875 L 12.453125 -45.171875 L 12.453125 -24.375 C 14.765625 -26.613281 17.707031 -27.734375 21.28125 -27.734375 C 25.164062 -27.734375 28.367188 -26.347656 30.890625 -23.578125 Z M 23.0625 -8.890625 C 24.21875 -10.066406 24.796875 -11.582031 24.796875 -13.4375 C 24.796875 -15.300781 24.191406 -16.828125 22.984375 -18.015625 C 21.773438 -19.203125 20.273438 -19.796875 18.484375 -19.796875 C 16.734375 -19.796875 15.253906 -19.203125 14.046875 -18.015625 C 12.835938 -16.828125 12.234375 -15.304688 12.234375 -13.453125 C 12.234375 -11.628906 12.820312 -10.117188 14 -8.921875 C 15.175781 -7.734375 16.671875 -7.140625 18.484375 -7.140625 C 20.378906 -7.140625 21.90625 -7.722656 23.0625 -8.890625 Z M 23.0625 -8.890625 "/></g></g></g><g fill="#000000" fill-opacity="1"><g transform="translate(30.938812, 53.206484)"><g><path d="M 4.046875 -41.96875 C 5.128906 -43.050781 6.421875 -43.59375 7.921875 -43.59375 C 9.429688 -43.59375 10.726562 -43.050781 11.8125 -41.96875 C 12.90625 -40.882812 13.453125 -39.585938 13.453125 -38.078125 C 13.453125 -36.578125 12.90625 -35.28125 11.8125 -34.1875 C 10.726562 -33.101562 9.429688 -32.5625 7.921875 -32.5625 C 6.421875 -32.5625 5.128906 -33.101562 4.046875 -34.1875 C 2.960938 -35.28125 2.421875 -36.578125 2.421875 -38.078125 C 2.421875 -39.585938 2.960938 -40.882812 4.046875 -41.96875 Z M 3.15625 -26.953125 L 3.15625 0 L 12.453125 0 L 12.453125 -26.953125 Z M 3.15625 -26.953125 "/></g></g></g><path fill="#2c88c7" d="M 41.875 56.199219 L 71.664062 56.199219 L 71.664062 61.441406 L 41.875 61.441406 Z M 41.875 56.199219 " fill-opacity="1" fill-rule="nonzero"/><g fill="#2c88c7" fill-opacity="1"><g transform="translate(41.873364, 53.206484)"><g><path d="M 3.15625 0 L 3.15625 -26.953125 L 12.453125 -26.953125 L 12.453125 -24.109375 L 12.5625 -24.109375 C 14.96875 -26.523438 17.539062 -27.734375 20.28125 -27.734375 C 21.601562 -27.734375 22.921875 -27.554688 24.234375 -27.203125 C 25.554688 -26.859375 26.820312 -26.316406 28.03125 -25.578125 C 29.238281 -24.847656 30.21875 -23.804688 30.96875 -22.453125 C 31.71875 -21.109375 32.09375 -19.539062 32.09375 -17.75 L 32.09375 0 L 22.796875 0 L 22.796875 -15.234375 C 22.796875 -16.628906 22.347656 -17.851562 21.453125 -18.90625 C 20.566406 -19.957031 19.40625 -20.484375 17.96875 -20.484375 C 16.5625 -20.484375 15.289062 -19.941406 14.15625 -18.859375 C 13.019531 -17.773438 12.453125 -16.566406 12.453125 -15.234375 L 12.453125 0 Z M 3.15625 0 "/></g></g></g><g fill="#000000" fill-opacity="1"><g transform="translate(71.664275, 53.206484)"><g/></g></g><g fill="#e11432" fill-opacity="1"><g transform="translate(81.068237, 53.206484)"><g><path d="M 29.265625 -17.8125 L 34.296875 -17.8125 L 34.296875 -9.140625 L 29.265625 -9.140625 L 29.265625 0 L 20.015625 0 L 20.015625 -9.140625 L -1.3125 -9.140625 L -1.3125 -12.078125 L 19.484375 -43.34375 L 29.265625 -43.34375 Z M 20.015625 -30.15625 L 19.90625 -30.15625 L 12.1875 -17.8125 L 20.015625 -17.8125 Z M 20.015625 -30.15625 "/></g></g></g><g fill="#e11432" fill-opacity="1"><g transform="translate(111.11647, 53.206484)"><g/></g></g><g fill="#e11432" fill-opacity="1"><g transform="translate(120.518459, 53.206484)"><g/></g></g><g fill="#000000" fill-opacity="1"><g transform="translate(129.924395, 53.206484)"><g><path d="M 3.15625 0 L 3.15625 -26.953125 L 12.453125 -26.953125 L 12.453125 -24.109375 L 12.5625 -24.109375 C 14.96875 -26.523438 17.539062 -27.734375 20.28125 -27.734375 C 22.238281 -27.734375 24.070312 -27.328125 25.78125 -26.515625 C 27.5 -25.710938 28.800781 -24.472656 29.6875 -22.796875 C 32.414062 -26.085938 35.390625 -27.734375 38.609375 -27.734375 C 41.484375 -27.734375 43.953125 -26.925781 46.015625 -25.3125 C 48.078125 -23.707031 49.109375 -21.1875 49.109375 -17.75 L 49.109375 0 L 39.8125 0 L 39.8125 -15.234375 C 39.8125 -16.671875 39.414062 -17.867188 38.625 -18.828125 C 37.84375 -19.796875 36.664062 -20.28125 35.09375 -20.28125 C 33.726562 -20.28125 32.6875 -19.867188 31.96875 -19.046875 C 31.25 -18.222656 30.851562 -17.234375 30.78125 -16.078125 L 30.78125 0 L 21.484375 0 L 21.484375 -15.234375 C 21.484375 -16.671875 21.085938 -17.867188 20.296875 -18.828125 C 19.515625 -19.796875 18.332031 -20.28125 16.75 -20.28125 C 15.320312 -20.28125 14.25 -19.832031 13.53125 -18.9375 C 12.8125 -18.039062 12.453125 -16.984375 12.453125 -15.765625 L 12.453125 0 Z M 3.15625 0 "/></g></g></g><g fill="#000000" fill-opacity="1"><g transform="translate(176.726911, 53.206484)"><g><path d="M 5.6875 -3.203125 C 2.695312 -5.867188 1.203125 -9.285156 1.203125 -13.453125 C 1.203125 -17.617188 2.757812 -21.039062 5.875 -23.71875 C 9 -26.394531 12.851562 -27.734375 17.4375 -27.734375 C 21.957031 -27.734375 25.765625 -26.382812 28.859375 -23.6875 C 31.960938 -20.988281 33.515625 -17.570312 33.515625 -13.4375 C 33.515625 -9.3125 32 -5.910156 28.96875 -3.234375 C 25.9375 -0.554688 22.09375 0.78125 17.4375 0.78125 C 12.601562 0.78125 8.6875 -0.546875 5.6875 -3.203125 Z M 12.890625 -18.015625 C 11.679688 -16.828125 11.078125 -15.300781 11.078125 -13.4375 C 11.078125 -11.582031 11.65625 -10.066406 12.8125 -8.890625 C 13.96875 -7.722656 15.492188 -7.140625 17.390625 -7.140625 C 19.210938 -7.140625 20.707031 -7.734375 21.875 -8.921875 C 23.050781 -10.117188 23.640625 -11.628906 23.640625 -13.453125 C 23.640625 -15.304688 23.035156 -16.828125 21.828125 -18.015625 C 20.617188 -19.203125 19.140625 -19.796875 17.390625 -19.796875 C 15.597656 -19.796875 14.097656 -19.203125 12.890625 -18.015625 Z M 12.890625 -18.015625 "/></g></g></g><g fill="#000000" fill-opacity="1"><g transform="translate(206.510079, 53.206484)"><g><path d="M 3.15625 0 L 3.15625 -26.953125 L 12.453125 -26.953125 L 12.453125 -23.0625 L 12.5625 -23.0625 C 12.625 -23.195312 12.734375 -23.367188 12.890625 -23.578125 C 13.046875 -23.796875 13.382812 -24.164062 13.90625 -24.6875 C 14.4375 -25.21875 15 -25.691406 15.59375 -26.109375 C 16.195312 -26.523438 16.96875 -26.898438 17.90625 -27.234375 C 18.851562 -27.566406 19.816406 -27.734375 20.796875 -27.734375 C 21.816406 -27.734375 22.816406 -27.59375 23.796875 -27.3125 C 24.773438 -27.03125 25.492188 -26.75 25.953125 -26.46875 L 26.6875 -26.0625 L 22.796875 -18.171875 C 21.640625 -19.148438 20.03125 -19.640625 17.96875 -19.640625 C 16.84375 -19.640625 15.878906 -19.394531 15.078125 -18.90625 C 14.273438 -18.414062 13.707031 -17.820312 13.375 -17.125 C 13.039062 -16.425781 12.800781 -15.832031 12.65625 -15.34375 C 12.519531 -14.851562 12.453125 -14.46875 12.453125 -14.1875 L 12.453125 0 Z M 3.15625 0 "/></g></g></g><g fill="#000000" fill-opacity="1"><g transform="translate(227.731058, 53.206484)"><g><path d="M 30.421875 -12.1875 L 10.875 -12.1875 C 10.875 -10.289062 11.484375 -8.890625 12.703125 -7.984375 C 13.929688 -7.078125 15.265625 -6.625 16.703125 -6.625 C 18.210938 -6.625 19.40625 -6.820312 20.28125 -7.21875 C 21.15625 -7.625 22.148438 -8.421875 23.265625 -9.609375 L 30 -6.25 C 27.195312 -1.5625 22.535156 0.78125 16.015625 0.78125 C 11.953125 0.78125 8.46875 -0.609375 5.5625 -3.390625 C 2.65625 -6.171875 1.203125 -9.519531 1.203125 -13.4375 C 1.203125 -17.363281 2.65625 -20.726562 5.5625 -23.53125 C 8.46875 -26.332031 11.953125 -27.734375 16.015625 -27.734375 C 20.296875 -27.734375 23.773438 -26.5 26.453125 -24.03125 C 29.128906 -21.5625 30.46875 -18.035156 30.46875 -13.453125 C 30.46875 -12.816406 30.453125 -12.394531 30.421875 -12.1875 Z M 11.140625 -17.328125 L 21.375 -17.328125 C 21.164062 -18.734375 20.613281 -19.8125 19.71875 -20.5625 C 18.832031 -21.320312 17.6875 -21.703125 16.28125 -21.703125 C 14.738281 -21.703125 13.507812 -21.296875 12.59375 -20.484375 C 11.6875 -19.679688 11.203125 -18.628906 11.140625 -17.328125 Z M 11.140625 -17.328125 "/></g></g></g><g clip-path="url(#bc4facd148)"><g clip-path="url(#af90b0930d)"><path fill="#faca50" d="M 118.011719 10.855469 L 130.355469 10.855469 L 130.355469 23.203125 L 118.011719 23.203125 Z M 118.011719 10.855469 " fill-opacity="1" fill-rule="nonzero"/></g></g><g clip-path="url(#d4ac92765b)"><g clip-path="url(#2c2bee1392)"><path fill="#12a352" d="M 118.011719 41.703125 L 130.355469 41.703125 L 130.355469 54.046875 L 118.011719 54.046875 Z M 118.011719 41.703125 " fill-opacity="1" fill-rule="nonzero"/></g></g><g clip-path="url(#603df4b21b)"><g clip-path="url(#f11e565f82)"><path fill="#2c88c7" d="M 118.011719 26.277344 L 130.355469 26.277344 L 130.355469 38.625 L 118.011719 38.625 Z M 118.011719 26.277344 " fill-opacity="1" fill-rule="nonzero"/></g></g></svg>