<svg xmlns="http://www.w3.org/2000/svg" xmlns:xlink="http://www.w3.org/1999/xlink" width="350" zoomAndPan="magnify" viewBox="0 0 262.5 74.999997" height="100" preserveAspectRatio="xMidYMid meet" version="1.0"><defs><g/><clipPath id="b21c45a2e7"><path d="M 109.804688 11.050781 L 122.878906 11.050781 L 122.878906 24.128906 L 109.804688 24.128906 Z M 109.804688 11.050781 " clip-rule="nonzero"/></clipPath><clipPath id="43dca0a9b2"><path d="M 116.34375 11.050781 C 112.730469 11.050781 109.804688 13.980469 109.804688 17.589844 C 109.804688 21.203125 112.730469 24.128906 116.34375 24.128906 C 119.953125 24.128906 122.878906 21.203125 122.878906 17.589844 C 122.878906 13.980469 119.953125 11.050781 116.34375 11.050781 Z M 116.34375 11.050781 " clip-rule="nonzero"/></clipPath><clipPath id="17eff11e76"><path d="M 109.804688 43.726562 L 122.878906 43.726562 L 122.878906 56.804688 L 109.804688 56.804688 Z M 109.804688 43.726562 " clip-rule="nonzero"/></clipPath><clipPath id="fa2fc7a032"><path d="M 116.34375 43.726562 C 112.730469 43.726562 109.804688 46.652344 109.804688 50.265625 C 109.804688 53.875 112.730469 56.804688 116.34375 56.804688 C 119.953125 56.804688 122.878906 53.875 122.878906 50.265625 C 122.878906 46.652344 119.953125 43.726562 116.34375 43.726562 Z M 116.34375 43.726562 " clip-rule="nonzero"/></clipPath><clipPath id="9f62b1549c"><path d="M 109.804688 27.390625 L 122.878906 27.390625 L 122.878906 40.464844 L 109.804688 40.464844 Z M 109.804688 27.390625 " clip-rule="nonzero"/></clipPath><clipPath id="b1622a5db5"><path d="M 116.34375 27.390625 C 112.730469 27.390625 109.804688 30.316406 109.804688 33.929688 C 109.804688 37.539062 112.730469 40.464844 116.34375 40.464844 C 119.953125 40.464844 122.878906 37.539062 122.878906 33.929688 C 122.878906 30.316406 119.953125 27.390625 116.34375 27.390625 Z M 116.34375 27.390625 " clip-rule="nonzero"/></clipPath></defs><g fill="#000000" fill-opacity="1"><g transform="translate(2.898045, 55.140751)"><g><path d="M 5.015625 -28.546875 L 5.015625 -34.625 C 5.046875 -38.882812 6.046875 -42.296875 8.015625 -44.859375 C 9.984375 -47.421875 12.710938 -48.703125 16.203125 -48.703125 C 17.679688 -48.703125 19.097656 -48.488281 20.453125 -48.0625 C 21.804688 -47.632812 22.78125 -47.195312 23.375 -46.75 L 24.328125 -46.140625 L 20.875 -39.1875 C 19.976562 -39.707031 18.992188 -39.96875 17.921875 -39.96875 C 16.691406 -39.96875 15.875 -39.546875 15.46875 -38.703125 C 15.0625 -37.867188 14.859375 -36.414062 14.859375 -34.34375 L 14.859375 -28.546875 L 21.421875 -28.546875 L 21.421875 -21.03125 L 14.859375 -21.03125 L 14.859375 0 L 5.015625 0 L 5.015625 -21.03125 L 0.890625 -21.03125 L 0.890625 -28.546875 Z M 5.015625 -28.546875 "/></g></g></g><g fill="#000000" fill-opacity="1"><g transform="translate(18.531957, 55.140751)"><g><path d="M 4.28125 -44.46875 C 5.4375 -45.613281 6.8125 -46.1875 8.40625 -46.1875 C 10 -46.1875 11.367188 -45.613281 12.515625 -44.46875 C 13.671875 -43.320312 14.25 -41.945312 14.25 -40.34375 C 14.25 -38.75 13.671875 -37.375 12.515625 -36.21875 C 11.367188 -35.070312 10 -34.5 8.40625 -34.5 C 6.8125 -34.5 5.4375 -35.070312 4.28125 -36.21875 C 3.132812 -37.375 2.5625 -38.75 2.5625 -40.34375 C 2.5625 -41.945312 3.132812 -43.320312 4.28125 -44.46875 Z M 3.34375 -28.546875 L 3.34375 0 L 13.1875 0 L 13.1875 -28.546875 Z M 3.34375 -28.546875 "/></g></g></g><path fill="#12a352" d="M 30.117188 58.136719 L 61.273438 58.136719 L 61.273438 63.375 L 30.117188 63.375 Z M 30.117188 58.136719 " fill-opacity="1" fill-rule="nonzero"/><g fill="#12a352" fill-opacity="1"><g transform="translate(30.115732, 55.140751)"><g><path d="M 36.40625 0 L 24.484375 0 L 18.203125 -8.0625 L 11.90625 0 L 0 0 L 12.1875 -14.921875 L 1.71875 -28.546875 L 13.25 -28.546875 L 18.203125 -21.921875 L 23.15625 -28.546875 L 34.671875 -28.546875 L 24.203125 -14.921875 Z M 36.40625 0 "/></g></g></g><g fill="#000000" fill-opacity="1"><g transform="translate(61.275129, 55.140751)"><g/></g></g><g fill="#faca50" fill-opacity="1"><g transform="translate(71.240522, 55.140751)"><g><path d="M 31 -18.875 L 36.34375 -18.875 L 36.34375 -9.6875 L 31 -9.6875 L 31 0 L 21.203125 0 L 21.203125 -9.6875 L -1.390625 -9.6875 L -1.390625 -12.796875 L 20.65625 -45.921875 L 31 -45.921875 Z M 21.203125 -31.953125 L 21.09375 -31.953125 L 12.90625 -18.875 L 21.203125 -18.875 Z M 21.203125 -31.953125 "/></g></g></g><g fill="#e11432" fill-opacity="1"><g transform="translate(103.066619, 55.140751)"><g/></g></g><g fill="#e11432" fill-opacity="1"><g transform="translate(113.025242, 55.140751)"><g/></g></g><g fill="#000000" fill-opacity="1"><g transform="translate(122.985708, 55.140751)"><g><path d="M 3.34375 0 L 3.34375 -28.546875 L 13.1875 -28.546875 L 13.1875 -25.546875 L 13.296875 -25.546875 C 15.859375 -28.109375 18.585938 -29.390625 21.484375 -29.390625 C 23.554688 -29.390625 25.5 -28.960938 27.3125 -28.109375 C 29.132812 -27.253906 30.515625 -25.9375 31.453125 -24.15625 C 34.335938 -27.644531 37.488281 -29.390625 40.90625 -29.390625 C 43.945312 -29.390625 46.5625 -28.535156 48.75 -26.828125 C 50.9375 -25.117188 52.03125 -22.445312 52.03125 -18.8125 L 52.03125 0 L 42.1875 0 L 42.1875 -16.140625 C 42.1875 -17.660156 41.769531 -18.929688 40.9375 -19.953125 C 40.101562 -20.972656 38.847656 -21.484375 37.171875 -21.484375 C 35.722656 -21.484375 34.617188 -21.046875 33.859375 -20.171875 C 33.097656 -19.304688 32.679688 -18.257812 32.609375 -17.03125 L 32.609375 0 L 22.765625 0 L 22.765625 -16.140625 C 22.765625 -17.660156 22.347656 -18.929688 21.515625 -19.953125 C 20.679688 -20.972656 19.425781 -21.484375 17.75 -21.484375 C 16.226562 -21.484375 15.085938 -21.007812 14.328125 -20.0625 C 13.566406 -19.113281 13.1875 -17.992188 13.1875 -16.703125 L 13.1875 0 Z M 3.34375 0 "/></g></g></g><g fill="#000000" fill-opacity="1"><g transform="translate(172.560119, 55.140751)"><g><path d="M 6.03125 -3.390625 C 2.863281 -6.210938 1.28125 -9.832031 1.28125 -14.25 C 1.28125 -18.664062 2.929688 -22.289062 6.234375 -25.125 C 9.535156 -27.96875 13.617188 -29.390625 18.484375 -29.390625 C 23.265625 -29.390625 27.296875 -27.957031 30.578125 -25.09375 C 33.867188 -22.238281 35.515625 -18.625 35.515625 -14.25 C 35.515625 -9.875 33.90625 -6.265625 30.6875 -3.421875 C 27.476562 -0.585938 23.410156 0.828125 18.484375 0.828125 C 13.359375 0.828125 9.207031 -0.578125 6.03125 -3.390625 Z M 13.65625 -19.09375 C 12.382812 -17.832031 11.75 -16.21875 11.75 -14.25 C 11.75 -12.28125 12.359375 -10.671875 13.578125 -9.421875 C 14.804688 -8.179688 16.421875 -7.5625 18.421875 -7.5625 C 20.347656 -7.5625 21.929688 -8.191406 23.171875 -9.453125 C 24.421875 -10.722656 25.046875 -12.320312 25.046875 -14.25 C 25.046875 -16.21875 24.40625 -17.832031 23.125 -19.09375 C 21.84375 -20.351562 20.273438 -20.984375 18.421875 -20.984375 C 16.523438 -20.984375 14.9375 -20.351562 13.65625 -19.09375 Z M 13.65625 -19.09375 "/></g></g></g><g fill="#000000" fill-opacity="1"><g transform="translate(204.107127, 55.140751)"><g><path d="M 3.34375 0 L 3.34375 -28.546875 L 13.1875 -28.546875 L 13.1875 -24.4375 L 13.296875 -24.4375 C 13.367188 -24.582031 13.488281 -24.765625 13.65625 -24.984375 C 13.820312 -25.210938 14.179688 -25.601562 14.734375 -26.15625 C 15.296875 -26.71875 15.890625 -27.21875 16.515625 -27.65625 C 17.148438 -28.101562 17.96875 -28.503906 18.96875 -28.859375 C 19.976562 -29.210938 21.003906 -29.390625 22.046875 -29.390625 C 23.117188 -29.390625 24.171875 -29.238281 25.203125 -28.9375 C 26.242188 -28.644531 27.007812 -28.347656 27.5 -28.046875 L 28.265625 -27.609375 L 24.15625 -19.25 C 22.925781 -20.289062 21.21875 -20.8125 19.03125 -20.8125 C 17.84375 -20.8125 16.820312 -20.550781 15.96875 -20.03125 C 15.113281 -19.507812 14.507812 -18.878906 14.15625 -18.140625 C 13.8125 -17.398438 13.5625 -16.769531 13.40625 -16.25 C 13.257812 -15.726562 13.1875 -15.320312 13.1875 -15.03125 L 13.1875 0 Z M 3.34375 0 "/></g></g></g><g fill="#000000" fill-opacity="1"><g transform="translate(226.584785, 55.140751)"><g><path d="M 32.21875 -12.90625 L 11.515625 -12.90625 C 11.515625 -10.90625 12.164062 -9.421875 13.46875 -8.453125 C 14.769531 -7.492188 16.179688 -7.015625 17.703125 -7.015625 C 19.296875 -7.015625 20.554688 -7.226562 21.484375 -7.65625 C 22.410156 -8.082031 23.46875 -8.925781 24.65625 -10.1875 L 31.78125 -6.625 C 28.8125 -1.65625 23.875 0.828125 16.96875 0.828125 C 12.664062 0.828125 8.972656 -0.644531 5.890625 -3.59375 C 2.816406 -6.539062 1.28125 -10.09375 1.28125 -14.25 C 1.28125 -18.40625 2.816406 -21.96875 5.890625 -24.9375 C 8.972656 -27.90625 12.664062 -29.390625 16.96875 -29.390625 C 21.5 -29.390625 25.179688 -28.078125 28.015625 -25.453125 C 30.859375 -22.835938 32.28125 -19.101562 32.28125 -14.25 C 32.28125 -13.582031 32.257812 -13.132812 32.21875 -12.90625 Z M 11.796875 -18.359375 L 22.65625 -18.359375 C 22.425781 -19.847656 21.835938 -20.988281 20.890625 -21.78125 C 19.953125 -22.582031 18.738281 -22.984375 17.25 -22.984375 C 15.613281 -22.984375 14.3125 -22.554688 13.34375 -21.703125 C 12.382812 -20.847656 11.867188 -19.734375 11.796875 -18.359375 Z M 11.796875 -18.359375 "/></g></g></g><g clip-path="url(#b21c45a2e7)"><g clip-path="url(#43dca0a9b2)"><path fill="#e11432" d="M 109.804688 11.050781 L 122.878906 11.050781 L 122.878906 24.128906 L 109.804688 24.128906 Z M 109.804688 11.050781 " fill-opacity="1" fill-rule="nonzero"/></g></g><g clip-path="url(#17eff11e76)"><g clip-path="url(#fa2fc7a032)"><path fill="#12a352" d="M 109.804688 43.726562 L 122.878906 43.726562 L 122.878906 56.804688 L 109.804688 56.804688 Z M 109.804688 43.726562 " fill-opacity="1" fill-rule="nonzero"/></g></g><g clip-path="url(#9f62b1549c)"><g clip-path="url(#b1622a5db5)"><path fill="#2c88c7" d="M 109.804688 27.390625 L 122.878906 27.390625 L 122.878906 40.464844 L 109.804688 40.464844 Z M 109.804688 27.390625 " fill-opacity="1" fill-rule="nonzero"/></g></g></svg>