<svg xmlns="http://www.w3.org/2000/svg" xmlns:xlink="http://www.w3.org/1999/xlink" width="350" zoomAndPan="magnify" viewBox="0 0 262.5 74.999997" height="100" preserveAspectRatio="xMidYMid meet" version="1.0"><defs><g/><clipPath id="5a6a48fe09"><path d="M 142.9375 5.6875 L 156.488281 5.6875 L 156.488281 19.242188 L 142.9375 19.242188 Z M 142.9375 5.6875 " clip-rule="nonzero"/></clipPath><clipPath id="913a9fdc7d"><path d="M 149.710938 5.6875 C 145.96875 5.6875 142.9375 8.722656 142.9375 12.464844 C 142.9375 16.207031 145.96875 19.242188 149.710938 19.242188 C 153.453125 19.242188 156.488281 16.207031 156.488281 12.464844 C 156.488281 8.722656 153.453125 5.6875 149.710938 5.6875 Z M 149.710938 5.6875 " clip-rule="nonzero"/></clipPath><clipPath id="a962a286ff"><path d="M 142.9375 39.546875 L 156.488281 39.546875 L 156.488281 53.101562 L 142.9375 53.101562 Z M 142.9375 39.546875 " clip-rule="nonzero"/></clipPath><clipPath id="f01c1751e0"><path d="M 149.710938 39.546875 C 145.96875 39.546875 142.9375 42.582031 142.9375 46.324219 C 142.9375 50.066406 145.96875 53.101562 149.710938 53.101562 C 153.453125 53.101562 156.488281 50.066406 156.488281 46.324219 C 156.488281 42.582031 153.453125 39.546875 149.710938 39.546875 Z M 149.710938 39.546875 " clip-rule="nonzero"/></clipPath><clipPath id="6786d0f081"><path d="M 142.9375 22.617188 L 156.488281 22.617188 L 156.488281 36.171875 L 142.9375 36.171875 Z M 142.9375 22.617188 " clip-rule="nonzero"/></clipPath><clipPath id="5662103611"><path d="M 149.710938 22.617188 C 145.96875 22.617188 142.9375 25.652344 142.9375 29.394531 C 142.9375 33.136719 145.96875 36.171875 149.710938 36.171875 C 153.453125 36.171875 156.488281 33.136719 156.488281 29.394531 C 156.488281 25.652344 153.453125 22.617188 149.710938 22.617188 Z M 149.710938 22.617188 " clip-rule="nonzero"/></clipPath></defs><path fill="#12a352" d="M 101.230469 55.921875 L 134.214844 55.921875 L 134.214844 61.160156 L 101.230469 61.160156 Z M 101.230469 55.921875 " fill-opacity="1" fill-rule="nonzero"/><g fill="#12a352" fill-opacity="1"><g transform="translate(101.229641, 52.926047)"><g><path d="M 32.109375 -19.546875 L 37.65625 -19.546875 L 37.65625 -10.03125 L 32.109375 -10.03125 L 32.109375 0 L 21.96875 0 L 21.96875 -10.03125 L -1.4375 -10.03125 L -1.4375 -13.265625 L 21.390625 -47.5625 L 32.109375 -47.5625 Z M 21.96875 -33.09375 L 21.859375 -33.09375 L 13.375 -19.546875 L 21.96875 -19.546875 Z M 21.96875 -33.09375 "/></g></g></g><path fill="#020202" d="M 134.214844 55.921875 L 144.542969 55.921875 L 144.542969 61.160156 L 134.214844 61.160156 Z M 134.214844 55.921875 " fill-opacity="1" fill-rule="nonzero"/><g fill="#020202" fill-opacity="1"><g transform="translate(134.213688, 52.926047)"><g/></g></g><g fill="#e11432" fill-opacity="1"><g transform="translate(144.541672, 52.926047)"><g/></g></g><g clip-path="url(#5a6a48fe09)"><g clip-path="url(#913a9fdc7d)"><path fill="#12a352" d="M 142.9375 5.6875 L 156.488281 5.6875 L 156.488281 19.242188 L 142.9375 19.242188 Z M 142.9375 5.6875 " fill-opacity="1" fill-rule="nonzero"/></g></g><g clip-path="url(#a962a286ff)"><g clip-path="url(#f01c1751e0)"><path fill="#12a352" d="M 142.9375 39.546875 L 156.488281 39.546875 L 156.488281 53.101562 L 142.9375 53.101562 Z M 142.9375 39.546875 " fill-opacity="1" fill-rule="nonzero"/></g></g><g clip-path="url(#6786d0f081)"><g clip-path="url(#5662103611)"><path fill="#12a352" d="M 142.9375 22.617188 L 156.488281 22.617188 L 156.488281 36.171875 L 142.9375 36.171875 Z M 142.9375 22.617188 " fill-opacity="1" fill-rule="nonzero"/></g></g></svg>