<svg xmlns="http://www.w3.org/2000/svg" xmlns:xlink="http://www.w3.org/1999/xlink" width="350" zoomAndPan="magnify" viewBox="0 0 262.5 74.999997" height="100" preserveAspectRatio="xMidYMid meet" version="1.0"><defs><g/><clipPath id="52e2bac065"><path d="M 142.882812 5.828125 L 156.375 5.828125 L 156.375 19.320312 L 142.882812 19.320312 Z M 142.882812 5.828125 " clip-rule="nonzero"/></clipPath><clipPath id="2f3ff51778"><path d="M 149.628906 5.828125 C 145.90625 5.828125 142.882812 8.847656 142.882812 12.574219 C 142.882812 16.300781 145.90625 19.320312 149.628906 19.320312 C 153.355469 19.320312 156.375 16.300781 156.375 12.574219 C 156.375 8.847656 153.355469 5.828125 149.628906 5.828125 Z M 149.628906 5.828125 " clip-rule="nonzero"/></clipPath><clipPath id="1fa55870eb"><path d="M 142.882812 39.539062 L 156.375 39.539062 L 156.375 53.03125 L 142.882812 53.03125 Z M 142.882812 39.539062 " clip-rule="nonzero"/></clipPath><clipPath id="8c8d6efca7"><path d="M 149.628906 39.539062 C 145.90625 39.539062 142.882812 42.558594 142.882812 46.285156 C 142.882812 50.011719 145.90625 53.03125 149.628906 53.03125 C 153.355469 53.03125 156.375 50.011719 156.375 46.285156 C 156.375 42.558594 153.355469 39.539062 149.628906 39.539062 Z M 149.628906 39.539062 " clip-rule="nonzero"/></clipPath><clipPath id="6d172be7ef"><path d="M 142.882812 22.683594 L 156.375 22.683594 L 156.375 36.175781 L 142.882812 36.175781 Z M 142.882812 22.683594 " clip-rule="nonzero"/></clipPath><clipPath id="2165486367"><path d="M 149.628906 22.683594 C 145.90625 22.683594 142.882812 25.703125 142.882812 29.429688 C 142.882812 33.15625 145.90625 36.175781 149.628906 36.175781 C 153.355469 36.175781 156.375 33.15625 156.375 29.429688 C 156.375 25.703125 153.355469 22.683594 149.628906 22.683594 Z M 149.628906 22.683594 " clip-rule="nonzero"/></clipPath></defs><path fill="#faca50" d="M 99.429688 56.097656 L 132.273438 56.097656 L 132.273438 61.335938 L 99.429688 61.335938 Z M 99.429688 56.097656 " fill-opacity="1" fill-rule="nonzero"/><g fill="#faca50" fill-opacity="1"><g transform="translate(99.431353, 53.10145)"><g><path d="M 31.984375 -19.46875 L 37.5 -19.46875 L 37.5 -9.984375 L 31.984375 -9.984375 L 31.984375 0 L 21.875 0 L 21.875 -9.984375 L -1.4375 -9.984375 L -1.4375 -13.203125 L 21.296875 -47.375 L 31.984375 -47.375 Z M 21.875 -32.953125 L 21.765625 -32.953125 L 13.328125 -19.46875 L 21.875 -19.46875 Z M 21.875 -32.953125 "/></g></g></g><path fill="#020202" d="M 132.273438 56.097656 L 142.554688 56.097656 L 142.554688 61.335938 L 132.273438 61.335938 Z M 132.273438 56.097656 " fill-opacity="1" fill-rule="nonzero"/><g fill="#020202" fill-opacity="1"><g transform="translate(132.275042, 53.10145)"><g/></g></g><g fill="#e11432" fill-opacity="1"><g transform="translate(142.55624, 53.10145)"><g/></g></g><g clip-path="url(#52e2bac065)"><g clip-path="url(#2f3ff51778)"><path fill="#faca50" d="M 142.882812 5.828125 L 156.375 5.828125 L 156.375 19.320312 L 142.882812 19.320312 Z M 142.882812 5.828125 " fill-opacity="1" fill-rule="nonzero"/></g></g><g clip-path="url(#1fa55870eb)"><g clip-path="url(#8c8d6efca7)"><path fill="#faca50" d="M 142.882812 39.539062 L 156.375 39.539062 L 156.375 53.03125 L 142.882812 53.03125 Z M 142.882812 39.539062 " fill-opacity="1" fill-rule="nonzero"/></g></g><g clip-path="url(#6d172be7ef)"><g clip-path="url(#2165486367)"><path fill="#faca50" d="M 142.882812 22.683594 L 156.375 22.683594 L 156.375 36.175781 L 142.882812 36.175781 Z M 142.882812 22.683594 " fill-opacity="1" fill-rule="nonzero"/></g></g></svg>