<svg xmlns="http://www.w3.org/2000/svg" xmlns:xlink="http://www.w3.org/1999/xlink" width="350" zoomAndPan="magnify" viewBox="0 0 262.5 74.999997" height="100" preserveAspectRatio="xMidYMid meet" version="1.0"><defs><g/><clipPath id="c3059330d0"><path d="M 78.984375 54 L 84 54 L 84 59 L 78.984375 59 Z M 57 54 L 57.222656 54 L 57.222656 59 L 57 59 Z M 57 54 " clip-rule="nonzero"/></clipPath><clipPath id="e28034f023"><path d="M 125.796875 11.007812 L 138.140625 11.007812 L 138.140625 23.351562 L 125.796875 23.351562 Z M 125.796875 11.007812 " clip-rule="nonzero"/></clipPath><clipPath id="4c0b36bbd6"><path d="M 131.96875 11.007812 C 128.5625 11.007812 125.796875 13.769531 125.796875 17.179688 C 125.796875 20.585938 128.5625 23.351562 131.96875 23.351562 C 135.378906 23.351562 138.140625 20.585938 138.140625 17.179688 C 138.140625 13.769531 135.378906 11.007812 131.96875 11.007812 Z M 131.96875 11.007812 " clip-rule="nonzero"/></clipPath><clipPath id="cf96d55d37"><path d="M 125.796875 41.851562 L 138.140625 41.851562 L 138.140625 54.199219 L 125.796875 54.199219 Z M 125.796875 41.851562 " clip-rule="nonzero"/></clipPath><clipPath id="3731289745"><path d="M 131.96875 41.851562 C 128.5625 41.851562 125.796875 44.617188 125.796875 48.023438 C 125.796875 51.433594 128.5625 54.199219 131.96875 54.199219 C 135.378906 54.199219 138.140625 51.433594 138.140625 48.023438 C 138.140625 44.617188 135.378906 41.851562 131.96875 41.851562 Z M 131.96875 41.851562 " clip-rule="nonzero"/></clipPath><clipPath id="d6389fb4f3"><path d="M 125.796875 26.429688 L 138.140625 26.429688 L 138.140625 38.773438 L 125.796875 38.773438 Z M 125.796875 26.429688 " clip-rule="nonzero"/></clipPath><clipPath id="26d28626a5"><path d="M 131.96875 26.429688 C 128.5625 26.429688 125.796875 29.191406 125.796875 32.601562 C 125.796875 36.011719 128.5625 38.773438 131.96875 38.773438 C 135.378906 38.773438 138.140625 36.011719 138.140625 32.601562 C 138.140625 29.191406 135.378906 26.429688 131.96875 26.429688 Z M 131.96875 26.429688 " clip-rule="nonzero"/></clipPath><clipPath id="162ef2c668"><path d="M 57.042969 54.199219 L 83.242188 54.199219 L 83.242188 55 L 57.042969 55 Z M 57.042969 54.199219 " clip-rule="nonzero"/></clipPath><clipPath id="1226c04b8b"><path d="M 57.042969 58 L 83.242188 58 L 83.242188 58.6875 L 57.042969 58.6875 Z M 57.042969 58 " clip-rule="nonzero"/></clipPath><clipPath id="bd846a079d"><path d="M 83 54.199219 L 83.242188 54.199219 L 83.242188 58.6875 L 83 58.6875 Z M 83 54.199219 " clip-rule="nonzero"/></clipPath><clipPath id="dedeef5303"><path d="M 57.042969 54.199219 L 58 54.199219 L 58 58.6875 L 57.042969 58.6875 Z M 57.042969 54.199219 " clip-rule="nonzero"/></clipPath><clipPath id="e4b8474544"><path d="M 57.042969 54.199219 L 83.539062 54.199219 L 83.539062 58.84375 L 57.042969 58.84375 Z M 57.042969 54.199219 " clip-rule="nonzero"/></clipPath></defs><g fill="#000000" fill-opacity="1"><g transform="translate(0, 51.337242)"><g><path d="M 28.53125 -21.8125 C 30.863281 -19.269531 32.03125 -16.15625 32.03125 -12.46875 C 32.03125 -8.78125 30.863281 -5.65625 28.53125 -3.09375 C 26.207031 -0.539062 23.25 0.734375 19.65625 0.734375 C 16.351562 0.734375 13.632812 -0.300781 11.5 -2.375 L 11.5 12.625 L 2.90625 12.625 L 2.90625 -24.890625 L 11.40625 -24.890625 L 11.40625 -22.078125 L 11.5 -22.078125 C 13.632812 -24.441406 16.351562 -25.625 19.65625 -25.625 C 23.25 -25.625 26.207031 -24.351562 28.53125 -21.8125 Z M 21.234375 -8.25 C 22.347656 -9.351562 22.90625 -10.757812 22.90625 -12.46875 C 22.90625 -14.1875 22.367188 -15.585938 21.296875 -16.671875 C 20.234375 -17.753906 18.828125 -18.296875 17.078125 -18.296875 C 15.398438 -18.296875 14.019531 -17.742188 12.9375 -16.640625 C 11.851562 -15.546875 11.3125 -14.15625 11.3125 -12.46875 C 11.3125 -10.757812 11.867188 -9.351562 12.984375 -8.25 C 14.097656 -7.144531 15.460938 -6.59375 17.078125 -6.59375 C 18.734375 -6.59375 20.117188 -7.144531 21.234375 -8.25 Z M 21.234375 -8.25 "/></g></g></g><g fill="#000000" fill-opacity="1"><g transform="translate(28.58199, 51.337242)"><g><path d="M 4.609375 -3.078125 C 2.273438 -5.617188 1.109375 -8.734375 1.109375 -12.421875 C 1.109375 -16.109375 2.273438 -19.226562 4.609375 -21.78125 C 6.941406 -24.34375 9.898438 -25.625 13.484375 -25.625 C 16.785156 -25.625 19.503906 -24.585938 21.640625 -22.515625 L 21.640625 -24.890625 L 30.234375 -24.890625 L 30.234375 0 L 21.734375 0 L 21.734375 -2.8125 L 21.640625 -2.8125 C 19.503906 -0.445312 16.785156 0.734375 13.484375 0.734375 C 9.898438 0.734375 6.941406 -0.535156 4.609375 -3.078125 Z M 11.90625 -16.640625 C 10.789062 -15.546875 10.234375 -14.140625 10.234375 -12.421875 C 10.234375 -10.710938 10.765625 -9.3125 11.828125 -8.21875 C 12.898438 -7.132812 14.3125 -6.59375 16.0625 -6.59375 C 17.75 -6.59375 19.132812 -7.144531 20.21875 -8.25 C 21.300781 -9.351562 21.84375 -10.742188 21.84375 -12.421875 C 21.84375 -14.140625 21.28125 -15.546875 20.15625 -16.640625 C 19.039062 -17.742188 17.675781 -18.296875 16.0625 -18.296875 C 14.414062 -18.296875 13.03125 -17.742188 11.90625 -16.640625 Z M 11.90625 -16.640625 "/></g></g></g><g clip-path="url(#c3059330d0)"><path fill="#faca50" d="M 57.171875 54.332031 L 83.335938 54.332031 L 83.335938 58.824219 L 57.171875 58.824219 Z M 57.171875 54.332031 " fill-opacity="1" fill-rule="nonzero"/></g><g fill="#faca50" fill-opacity="1"><g transform="translate(57.172348, 51.337242)"><g><path d="M 21.796875 -24.890625 L 31.6875 -24.890625 L 12.140625 12.625 L 2.234375 12.625 L 10.828125 -3.875 L -0.96875 -24.890625 L 8.9375 -24.890625 L 15.875 -12.140625 Z M 21.796875 -24.890625 "/></g></g></g><g fill="#000000" fill-opacity="1"><g transform="translate(83.337352, 51.337242)"><g/></g></g><g fill="#12a352" fill-opacity="1"><g transform="translate(92.02783, 51.337242)"><g><path d="M 27.03125 -16.453125 L 31.6875 -16.453125 L 31.6875 -8.4375 L 27.03125 -8.4375 L 27.03125 0 L 18.484375 0 L 18.484375 -8.4375 L -1.21875 -8.4375 L -1.21875 -11.15625 L 18 -40.03125 L 27.03125 -40.03125 Z M 18.484375 -27.859375 L 18.390625 -27.859375 L 11.265625 -16.453125 L 18.484375 -16.453125 Z M 18.484375 -27.859375 "/></g></g></g><g fill="#e11432" fill-opacity="1"><g transform="translate(119.795251, 51.337242)"><g/></g></g><g fill="#e11432" fill-opacity="1"><g transform="translate(128.480484, 51.337242)"><g/></g></g><g fill="#000000" fill-opacity="1"><g transform="translate(137.176206, 51.337242)"><g><path d="M 2.90625 0 L 2.90625 -24.890625 L 11.5 -24.890625 L 11.5 -22.28125 L 11.59375 -22.28125 C 13.832031 -24.507812 16.210938 -25.625 18.734375 -25.625 C 20.546875 -25.625 22.242188 -25.25 23.828125 -24.5 C 25.410156 -23.757812 26.609375 -22.613281 27.421875 -21.0625 C 29.941406 -24.101562 32.691406 -25.625 35.671875 -25.625 C 38.328125 -25.625 40.609375 -24.878906 42.515625 -23.390625 C 44.421875 -21.898438 45.375 -19.570312 45.375 -16.40625 L 45.375 0 L 36.78125 0 L 36.78125 -14.078125 C 36.78125 -15.398438 36.414062 -16.503906 35.6875 -17.390625 C 34.96875 -18.285156 33.878906 -18.734375 32.421875 -18.734375 C 31.160156 -18.734375 30.195312 -18.351562 29.53125 -17.59375 C 28.863281 -16.832031 28.5 -15.914062 28.4375 -14.84375 L 28.4375 0 L 19.84375 0 L 19.84375 -14.078125 C 19.84375 -15.398438 19.476562 -16.503906 18.75 -17.390625 C 18.03125 -18.285156 16.941406 -18.734375 15.484375 -18.734375 C 14.148438 -18.734375 13.148438 -18.320312 12.484375 -17.5 C 11.828125 -16.675781 11.5 -15.695312 11.5 -14.5625 L 11.5 0 Z M 2.90625 0 "/></g></g></g><g fill="#000000" fill-opacity="1"><g transform="translate(180.413852, 51.337242)"><g><path d="M 5.265625 -2.953125 C 2.492188 -5.421875 1.109375 -8.578125 1.109375 -12.421875 C 1.109375 -16.273438 2.546875 -19.4375 5.421875 -21.90625 C 8.304688 -24.382812 11.867188 -25.625 16.109375 -25.625 C 20.285156 -25.625 23.804688 -24.378906 26.671875 -21.890625 C 29.535156 -19.398438 30.96875 -16.242188 30.96875 -12.421875 C 30.96875 -8.609375 29.566406 -5.460938 26.765625 -2.984375 C 23.960938 -0.503906 20.410156 0.734375 16.109375 0.734375 C 11.648438 0.734375 8.035156 -0.492188 5.265625 -2.953125 Z M 11.90625 -16.640625 C 10.789062 -15.546875 10.234375 -14.140625 10.234375 -12.421875 C 10.234375 -10.710938 10.765625 -9.3125 11.828125 -8.21875 C 12.898438 -7.132812 14.3125 -6.59375 16.0625 -6.59375 C 17.75 -6.59375 19.132812 -7.144531 20.21875 -8.25 C 21.300781 -9.351562 21.84375 -10.742188 21.84375 -12.421875 C 21.84375 -14.140625 21.28125 -15.546875 20.15625 -16.640625 C 19.039062 -17.742188 17.675781 -18.296875 16.0625 -18.296875 C 14.414062 -18.296875 13.03125 -17.742188 11.90625 -16.640625 Z M 11.90625 -16.640625 "/></g></g></g><g fill="#000000" fill-opacity="1"><g transform="translate(207.928208, 51.337242)"><g><path d="M 2.90625 0 L 2.90625 -24.890625 L 11.5 -24.890625 L 11.5 -21.3125 L 11.59375 -21.3125 C 11.664062 -21.4375 11.773438 -21.59375 11.921875 -21.78125 C 12.066406 -21.976562 12.378906 -22.316406 12.859375 -22.796875 C 13.347656 -23.285156 13.863281 -23.722656 14.40625 -24.109375 C 14.957031 -24.503906 15.671875 -24.851562 16.546875 -25.15625 C 17.421875 -25.46875 18.3125 -25.625 19.21875 -25.625 C 20.15625 -25.625 21.078125 -25.492188 21.984375 -25.234375 C 22.890625 -24.972656 23.550781 -24.710938 23.96875 -24.453125 L 24.65625 -24.078125 L 21.0625 -16.796875 C 20 -17.703125 18.507812 -18.15625 16.59375 -18.15625 C 15.5625 -18.15625 14.671875 -17.925781 13.921875 -17.46875 C 13.179688 -17.019531 12.65625 -16.46875 12.34375 -15.8125 C 12.039062 -15.164062 11.820312 -14.613281 11.6875 -14.15625 C 11.5625 -13.707031 11.5 -13.359375 11.5 -13.109375 L 11.5 0 Z M 2.90625 0 "/></g></g></g><g fill="#000000" fill-opacity="1"><g transform="translate(227.532389, 51.337242)"><g><path d="M 28.09375 -11.265625 L 10.046875 -11.265625 C 10.046875 -9.515625 10.609375 -8.21875 11.734375 -7.375 C 12.867188 -6.53125 14.101562 -6.109375 15.4375 -6.109375 C 16.820312 -6.109375 17.921875 -6.296875 18.734375 -6.671875 C 19.546875 -7.046875 20.46875 -7.78125 21.5 -8.875 L 27.71875 -5.78125 C 25.125 -1.4375 20.816406 0.734375 14.796875 0.734375 C 11.046875 0.734375 7.828125 -0.550781 5.140625 -3.125 C 2.453125 -5.695312 1.109375 -8.796875 1.109375 -12.421875 C 1.109375 -16.046875 2.453125 -19.148438 5.140625 -21.734375 C 7.828125 -24.328125 11.046875 -25.625 14.796875 -25.625 C 18.742188 -25.625 21.953125 -24.484375 24.421875 -22.203125 C 26.898438 -19.921875 28.140625 -16.660156 28.140625 -12.421875 C 28.140625 -11.835938 28.125 -11.453125 28.09375 -11.265625 Z M 10.28125 -16.015625 L 19.75 -16.015625 C 19.5625 -17.304688 19.050781 -18.300781 18.21875 -19 C 17.394531 -19.695312 16.335938 -20.046875 15.046875 -20.046875 C 13.617188 -20.046875 12.484375 -19.671875 11.640625 -18.921875 C 10.804688 -18.179688 10.351562 -17.210938 10.28125 -16.015625 Z M 10.28125 -16.015625 "/></g></g></g><g clip-path="url(#e28034f023)"><g clip-path="url(#4c0b36bbd6)"><path fill="#e11432" d="M 125.796875 11.007812 L 138.140625 11.007812 L 138.140625 23.351562 L 125.796875 23.351562 Z M 125.796875 11.007812 " fill-opacity="1" fill-rule="nonzero"/></g></g><g clip-path="url(#cf96d55d37)"><g clip-path="url(#3731289745)"><path fill="#2c88c7" d="M 125.796875 41.851562 L 138.140625 41.851562 L 138.140625 54.199219 L 125.796875 54.199219 Z M 125.796875 41.851562 " fill-opacity="1" fill-rule="nonzero"/></g></g><g clip-path="url(#d6389fb4f3)"><g clip-path="url(#26d28626a5)"><path fill="#faca50" d="M 125.796875 26.429688 L 138.140625 26.429688 L 138.140625 38.773438 L 125.796875 38.773438 Z M 125.796875 26.429688 " fill-opacity="1" fill-rule="nonzero"/></g></g><g clip-path="url(#162ef2c668)"><path fill="#faca50" d="M 57.179688 54.203125 L 83.402344 54.203125 C 83.476562 54.203125 83.539062 54.261719 83.539062 54.335938 C 83.539062 54.410156 83.476562 54.472656 83.402344 54.472656 L 57.179688 54.472656 C 57.105469 54.472656 57.042969 54.410156 57.042969 54.335938 C 57.042969 54.261719 57.105469 54.203125 57.179688 54.203125 Z M 57.179688 54.203125 " fill-opacity="1" fill-rule="nonzero"/></g><g clip-path="url(#1226c04b8b)"><path fill="#faca50" d="M 57.179688 58.574219 L 83.402344 58.574219 C 83.476562 58.574219 83.539062 58.632812 83.539062 58.707031 C 83.539062 58.78125 83.476562 58.84375 83.402344 58.84375 L 57.179688 58.84375 C 57.105469 58.84375 57.042969 58.78125 57.042969 58.707031 C 57.042969 58.632812 57.105469 58.574219 57.179688 58.574219 Z M 57.179688 58.574219 " fill-opacity="1" fill-rule="nonzero"/></g><g clip-path="url(#bd846a079d)"><path fill="#faca50" d="M 83.539062 54.335938 L 83.539062 58.707031 C 83.539062 58.78125 83.476562 58.84375 83.402344 58.84375 C 83.328125 58.84375 83.269531 58.78125 83.269531 58.707031 L 83.269531 54.335938 C 83.269531 54.261719 83.328125 54.203125 83.402344 54.203125 C 83.476562 54.203125 83.539062 54.261719 83.539062 54.335938 Z M 83.539062 54.335938 " fill-opacity="1" fill-rule="nonzero"/></g><g clip-path="url(#dedeef5303)"><path fill="#faca50" d="M 57.3125 54.335938 L 57.3125 58.707031 C 57.3125 58.78125 57.253906 58.84375 57.179688 58.84375 C 57.105469 58.84375 57.042969 58.78125 57.042969 58.707031 L 57.042969 54.335938 C 57.042969 54.261719 57.105469 54.203125 57.179688 54.203125 C 57.253906 54.203125 57.3125 54.261719 57.3125 54.335938 Z M 57.3125 54.335938 " fill-opacity="1" fill-rule="nonzero"/></g><g clip-path="url(#e4b8474544)"><path fill="#faca50" d="M 57.042969 54.199219 L 83.53125 54.199219 L 83.53125 58.84375 L 57.042969 58.84375 Z M 57.042969 54.199219 " fill-opacity="1" fill-rule="nonzero"/></g></svg>